<?xml version="1.0" encoding="UTF-8" standalone="no"?>
<!-- Created with Inkscape (http://www.inkscape.org/) -->

<svg
   xmlns:dc="http://purl.org/dc/elements/1.1/"
   xmlns:cc="http://creativecommons.org/ns#"
   xmlns:rdf="http://www.w3.org/1999/02/22-rdf-syntax-ns#"
   xmlns:svg="http://www.w3.org/2000/svg"
   xmlns="http://www.w3.org/2000/svg"
   xmlns:sodipodi="http://sodipodi.sourceforge.net/DTD/sodipodi-0.dtd"
   xmlns:inkscape="http://www.inkscape.org/namespaces/inkscape"
   width="295.00003"
   height="295"
   viewBox="0 0 295.00003 295.00001"
   id="svg9107"
   version="1.1"
   inkscape:version="0.91 r13725"
   sodipodi:docname="Department of Transportation (Philippines).svg">
  <defs
     id="defs9109" />
  <sodipodi:namedview
     id="base"
     pagecolor="#ffffff"
     bordercolor="#666666"
     borderopacity="1.0"
     inkscape:pageopacity="0.0"
     inkscape:pageshadow="2"
     inkscape:zoom="1.7220339"
     inkscape:cx="147.50002"
     inkscape:cy="148.46842"
     inkscape:document-units="px"
     inkscape:current-layer="layer1"
     showgrid="false"
     fit-margin-top="0"
     fit-margin-left="0"
     fit-margin-right="0"
     fit-margin-bottom="0"
     units="px"
     inkscape:window-width="1366"
     inkscape:window-height="705"
     inkscape:window-x="-4"
     inkscape:window-y="-4"
     inkscape:window-maximized="1" />
  <metadata
     id="metadata9112">
    <rdf:RDF>
      <cc:Work
         rdf:about="">
        <dc:format>image/svg+xml</dc:format>
        <dc:type
           rdf:resource="http://purl.org/dc/dcmitype/StillImage" />
        <dc:title></dc:title>
      </cc:Work>
    </rdf:RDF>
  </metadata>
  <g
     inkscape:label="Layer 1"
     inkscape:groupmode="layer"
     id="layer1"
     transform="translate(-267.26598,-219.21515)">
    <ellipse
       style="fill:#ffffff;fill-opacity:1;stroke:#0038a8;stroke-width:4.13939571;stroke-linecap:round;stroke-linejoin:miter;stroke-miterlimit:4;stroke-dasharray:none;stroke-dashoffset:0;stroke-opacity:1"
       id="path9791"
       cx="414.76599"
       cy="366.71515"
       rx="145.43031"
       ry="145.4303" />
    <path
       inkscape:connector-curvature="0"
       style="fill:none;fill-opacity:1;stroke:none;stroke-width:2.25447798;stroke-linecap:round;stroke-linejoin:miter;stroke-miterlimit:4;stroke-dasharray:none;stroke-dashoffset:0;stroke-opacity:1"
       d="m 304.37761,399.10699 a 116.37276,116.37276 0 0 1 44.7552,-126.25718 116.37276,116.37276 0 0 1 133.9539,-0.48295 116.37276,116.37276 0 0 1 45.6645,125.93119"
       id="path7373" />
    <path
       inkscape:connector-curvature="0"
       style="fill:none;fill-opacity:1;stroke:none;stroke-width:2.66828012;stroke-linecap:round;stroke-linejoin:miter;stroke-miterlimit:4;stroke-dasharray:none;stroke-dashoffset:0;stroke-opacity:1"
       d="m 313.65501,460.97492 a 137.73262,137.7326 0 0 0 102.5757,45.3829 137.73262,137.7326 0 0 0 102.317,-45.96311"
       id="path7375" />
    <path
       style="fill:#ce1126;fill-opacity:1;fill-rule:evenodd;stroke:none;stroke-width:0.30000001;stroke-linecap:butt;stroke-linejoin:miter;stroke-miterlimit:4;stroke-dasharray:none;stroke-opacity:1"
       d="m 411.08221,256.24801 c -2.6885,48.26929 16.5145,83.42833 50.1066,104.58817 l -6.1018,-12.05005 c 19.6783,9.77838 27.6412,8.03247 39.2703,4.36187 12.2436,0.81117 10.3656,11.51468 10.3656,11.51468 l 6.1563,0.0293 c 0,0 2.4516,0.18984 4.2672,1.10076 1.8155,0.91093 4.0311,3.12084 5.317,4.78128 1.2858,1.66044 2.7534,3.19169 2.7534,3.19169 0,0 -38.0048,-8.81588 -83.7222,15.71957 -53.0535,22.7606 -63.8291,81.92579 -63.8291,81.92579 0,0 -47.3002,-14.36241 -64.3706,-69.15594 0,0 13.1873,-3.21217 19.1595,-5.98849 7.336,-3.41035 20.1046,-12.96175 20.1046,-12.96175 0,0 -7.3778,3.93418 -24.6429,9.11612 -17.265,5.18194 -17.0778,3.84934 -17.0778,3.84934 -2.9192,-16.47144 -2.6338,-19.15605 -2.9438,-32.25117 0,0 13.6443,1.40719 20.7359,0.71428 7.0916,-0.69291 23.3226,-5 23.3226,-5 -14.109,-0.27194 -29.3288,2.4265 -42.9438,-3.34055 1.2538,-13.07522 1.3993,-17.2265 8.023,-32.18618 14.1647,7.13364 23.8261,10.81342 39.6033,11.7461 -14.4445,-3.50155 -23.6581,-7.54784 -37.0166,-18.82397 7.118,-14.55345 10.3485,-17.47821 17.2258,-25.25254 14.5032,14.63179 22.4605,20.35655 36.6811,26.80738 -15.9319,-13.08248 -22.0613,-17.68877 -31.1148,-33.02674 10.4314,-10.73629 18.0839,-13.89447 25.8443,-18.10968 6.8798,12.1445 10.3063,20.64076 24.7042,33.59309 -12.1264,-17.15787 -13.626,-23.03705 -18.2577,-36.04976 13.8998,-7.09046 20.82,-7.95856 38.3804,-8.84264 z"
       id="path8764"
       inkscape:connector-curvature="0"
       sodipodi:nodetypes="cccccczzzcccsczcczccccccccccccc" />
    <path
       style="fill:#0038a8;fill-opacity:1;fill-rule:evenodd;stroke:none;stroke-width:0.30000001;stroke-linecap:butt;stroke-linejoin:miter;stroke-miterlimit:4;stroke-dasharray:none;stroke-opacity:1"
       d="m 414.18671,255.93069 c 0,0 -2.2035,32.00456 11.233,59.97707 13.4365,27.97251 29.835,37.2049 29.835,37.2049 l -2.7166,-8.80105 c 19.5757,11.0308 29.0817,9.92187 43.6838,5.64703 11.4315,2.75539 11.8746,11.53948 11.8746,11.53948 3.8368,0.52685 7.8347,-1.3156 16.7758,11.45314 0,0 2.5143,-12.78255 -1.9241,-30.40864 -4.4385,-17.6261 -15.198,-38.93819 -31.8547,-55.90394 -34.3716,-35.00927 -76.9068,-30.70799 -76.9068,-30.70799 z"
       id="path8768"
       inkscape:connector-curvature="0"
       sodipodi:nodetypes="czcccccssc" />
    <path
       style="fill:#0038a8;fill-opacity:1;fill-rule:evenodd;stroke:none;stroke-width:1px;stroke-linecap:butt;stroke-linejoin:miter;stroke-opacity:1"
       d="m 524.77301,375.24673 c 0,0 -50.0818,-6.47256 -95.4124,23.53739 -45.3306,30.00995 -50.8991,72.91853 -50.8991,72.91853 0,0 55.99091,22.46323 101.38481,-16.23154 45.394,-38.69477 44.92669,-80.22438 44.92669,-80.22438 z"
       id="path8772"
       inkscape:connector-curvature="0"
       sodipodi:nodetypes="czczc" />
    <path
       style="color:#000000;font-style:normal;font-variant:normal;font-weight:normal;font-stretch:normal;font-size:medium;line-height:normal;font-family:sans-serif;text-indent:0;text-align:start;text-decoration:none;text-decoration-line:none;text-decoration-style:solid;text-decoration-color:#000000;letter-spacing:normal;word-spacing:normal;text-transform:none;direction:ltr;block-progression:tb;writing-mode:lr-tb;baseline-shift:baseline;text-anchor:start;white-space:normal;clip-rule:nonzero;display:inline;overflow:visible;visibility:visible;opacity:1;isolation:auto;mix-blend-mode:normal;color-interpolation:sRGB;color-interpolation-filters:linearRGB;solid-color:#000000;solid-opacity:1;fill:#ffffff;fill-opacity:1;fill-rule:evenodd;stroke:none;stroke-width:1;stroke-linecap:butt;stroke-linejoin:miter;stroke-miterlimit:4;stroke-dasharray:none;stroke-dashoffset:0;stroke-opacity:1;color-rendering:auto;image-rendering:auto;shape-rendering:auto;text-rendering:auto;enable-background:accumulate"
       d="m 526.56141,385.78366 -78.6543,1.44141 0.02,1 78.6543,-1.44141 -0.02,-1 z"
       id="path8774"
       inkscape:connector-curvature="0" />
    <path
       style="color:#000000;font-style:normal;font-variant:normal;font-weight:normal;font-stretch:normal;font-size:medium;line-height:normal;font-family:sans-serif;text-indent:0;text-align:start;text-decoration:none;text-decoration-line:none;text-decoration-style:solid;text-decoration-color:#000000;letter-spacing:normal;word-spacing:normal;text-transform:none;direction:ltr;block-progression:tb;writing-mode:lr-tb;baseline-shift:baseline;text-anchor:start;white-space:normal;clip-rule:nonzero;display:inline;overflow:visible;visibility:visible;opacity:1;isolation:auto;mix-blend-mode:normal;color-interpolation:sRGB;color-interpolation-filters:linearRGB;solid-color:#000000;solid-opacity:1;fill:#ffffff;fill-opacity:1;fill-rule:evenodd;stroke:none;stroke-width:1.20000005;stroke-linecap:butt;stroke-linejoin:miter;stroke-miterlimit:4;stroke-dasharray:none;stroke-dashoffset:0;stroke-opacity:1;color-rendering:auto;image-rendering:auto;shape-rendering:auto;text-rendering:auto;enable-background:accumulate"
       d="m 524.68841,394.70163 -94.1621,1.51367 0.018,1.20118 94.164,-1.51563 -0.019,-1.19922 z"
       id="path8776"
       inkscape:connector-curvature="0" />
    <path
       style="color:#000000;font-style:normal;font-variant:normal;font-weight:normal;font-stretch:normal;font-size:medium;line-height:normal;font-family:sans-serif;text-indent:0;text-align:start;text-decoration:none;text-decoration-line:none;text-decoration-style:solid;text-decoration-color:#000000;letter-spacing:normal;word-spacing:normal;text-transform:none;direction:ltr;block-progression:tb;writing-mode:lr-tb;baseline-shift:baseline;text-anchor:start;white-space:normal;clip-rule:nonzero;display:inline;overflow:visible;visibility:visible;opacity:1;isolation:auto;mix-blend-mode:normal;color-interpolation:sRGB;color-interpolation-filters:linearRGB;solid-color:#000000;solid-opacity:1;fill:#ffffff;fill-opacity:1;fill-rule:evenodd;stroke:none;stroke-width:1.70000005;stroke-linecap:butt;stroke-linejoin:miter;stroke-miterlimit:4;stroke-dasharray:none;stroke-dashoffset:0;stroke-opacity:1;color-rendering:auto;image-rendering:auto;shape-rendering:auto;text-rendering:auto;enable-background:accumulate"
       d="m 521.57711,407.33054 -106.7481,0.65234 0.01,1.70117 106.7481,-0.65429 -0.01,-1.69922 z"
       id="path8778"
       inkscape:connector-curvature="0" />
    <path
       style="color:#000000;font-style:normal;font-variant:normal;font-weight:normal;font-stretch:normal;font-size:medium;line-height:normal;font-family:sans-serif;text-indent:0;text-align:start;text-decoration:none;text-decoration-line:none;text-decoration-style:solid;text-decoration-color:#000000;letter-spacing:normal;word-spacing:normal;text-transform:none;direction:ltr;block-progression:tb;writing-mode:lr-tb;baseline-shift:baseline;text-anchor:start;white-space:normal;clip-rule:nonzero;display:inline;overflow:visible;visibility:visible;opacity:1;isolation:auto;mix-blend-mode:normal;color-interpolation:sRGB;color-interpolation-filters:linearRGB;solid-color:#000000;solid-opacity:1;fill:#ffffff;fill-opacity:1;fill-rule:evenodd;stroke:none;stroke-width:2;stroke-linecap:butt;stroke-linejoin:miter;stroke-miterlimit:4;stroke-dasharray:none;stroke-dashoffset:0;stroke-opacity:1;color-rendering:auto;image-rendering:auto;shape-rendering:auto;text-rendering:auto;enable-background:accumulate"
       d="m 509.92861,425.86765 -112.5566,0.75781 0.014,2 112.5547,-0.75781 -0.012,-2 z"
       id="path8780"
       inkscape:connector-curvature="0" />
    <path
       style="color:#000000;font-style:normal;font-variant:normal;font-weight:normal;font-stretch:normal;font-size:medium;line-height:normal;font-family:sans-serif;text-indent:0;text-align:start;text-decoration:none;text-decoration-line:none;text-decoration-style:solid;text-decoration-color:#000000;letter-spacing:normal;word-spacing:normal;text-transform:none;direction:ltr;block-progression:tb;writing-mode:lr-tb;baseline-shift:baseline;text-anchor:start;white-space:normal;clip-rule:nonzero;display:inline;overflow:visible;visibility:visible;opacity:1;isolation:auto;mix-blend-mode:normal;color-interpolation:sRGB;color-interpolation-filters:linearRGB;solid-color:#000000;solid-opacity:1;fill:#ffffff;fill-opacity:1;fill-rule:evenodd;stroke:none;stroke-width:2.5;stroke-linecap:butt;stroke-linejoin:miter;stroke-miterlimit:4;stroke-dasharray:none;stroke-dashoffset:0;stroke-opacity:1;color-rendering:auto;image-rendering:auto;shape-rendering:auto;text-rendering:auto;enable-background:accumulate"
       d="m 491.38371,447.3364 -106.416,1.00976 0.023,2.5 106.416,-1.00976 -0.023,-2.5 z"
       id="path8782"
       inkscape:connector-curvature="0" />
    <path
       inkscape:connector-curvature="0"
       style="fill:none;fill-opacity:1;stroke:none;stroke-width:1.04466271;stroke-linecap:round;stroke-linejoin:miter;stroke-miterlimit:4;stroke-dasharray:none;stroke-dashoffset:0;stroke-opacity:1"
       d="m 357.26231,473.44016 a 119.91597,121.22279 0 0 1 -57.9135,-135.44204 119.91597,121.22279 0 0 1 114.3916,-91.65056 119.91597,121.22279 0 0 1 117.2144,87.93017 119.91597,121.22279 0 0 1 -53.6273,137.23377"
       id="path8792" />
    <path
       inkscape:connector-curvature="0"
       style="fill:none;fill-opacity:1;stroke:none;stroke-width:1.20310521;stroke-linecap:round;stroke-linejoin:miter;stroke-miterlimit:4;stroke-dasharray:none;stroke-dashoffset:0;stroke-opacity:1"
       d="m 374.24391,499.25568 a 138.80162,138.90623 0 0 0 98.4567,-5.54722"
       id="path8792-9" />
    <g
       transform="translate(97.780214,-103.27493)"
       style="font-style:normal;font-variant:normal;font-weight:bold;font-stretch:normal;font-size:40px;line-height:125%;font-family:'Swis721 BT';-inkscape-font-specification:'Swis721 BT, Bold';text-align:start;letter-spacing:0px;word-spacing:0px;writing-mode:lr-tb;text-anchor:start;fill:#0038a8;fill-opacity:1;stroke:none;stroke-width:1px;stroke-linecap:butt;stroke-linejoin:miter;stroke-opacity:1"
       id="text8816">
      <path
         d="m 286.7751,603.37199 2.64702,-11.65385 -4.07111,-0.92469 0.54346,-2.39267 0.26189,0.0595 q 2.22601,0.50561 3.39466,0.045 1.18055,-0.45789 1.72682,-2.03626 l 2.72598,0.61917 -3.87184,17.04628 -3.35688,-0.76247 z"
         style="font-size:25px;letter-spacing:5px;fill:#0038a8;fill-opacity:1"
         id="path8928"
         inkscape:connector-curvature="0" />
      <path
         d="m 304.30495,601.22679 q -0.10904,1.27709 0.53721,2.0306 0.65841,0.75455 1.98416,0.86774 1.26492,0.108 2.04276,-0.53617 0.79,-0.64313 0.89696,-1.8959 0.10281,-1.20411 -0.57681,-1.99722 -0.67962,-0.79312 -1.90806,-0.898 -1.22844,-0.10489 -2.05805,0.57162 -0.81743,0.67754 -0.91817,1.85733 z m 0.91737,-7.44406 q -0.0862,1.00951 0.49954,1.61083 0.58677,0.58917 1.76656,0.6899 1.17979,0.10073 1.85899,-0.39259 0.69135,-0.49229 0.77651,-1.48964 0.0831,-0.97302 -0.52594,-1.58858 -0.60902,-0.61557 -1.75232,-0.71319 -1.11898,-0.0955 -1.83674,0.419 -0.7056,0.51557 -0.7866,1.46427 z m -1.54146,3.27429 q -1.04273,-0.7016 -1.45966,-1.55805 -0.41694,-0.85644 -0.30893,-2.12137 0.19108,-2.23795 1.83263,-3.3842 1.64154,-1.14624 4.34168,-0.9157 2.72446,0.23262 4.14793,1.64056 1.43668,1.39681 1.24456,3.64693 -0.10281,1.20411 -0.70162,2.04734 -0.59777,0.83106 -1.68946,1.27692 1.22621,0.70501 1.78049,1.81822 0.55532,1.10103 0.42654,2.60922 -0.21704,2.54202 -2.01908,3.84608 -1.78988,1.3051 -4.72111,1.05483 -2.96771,-0.25339 -4.48715,-1.82879 -1.51944,-1.5754 -1.30032,-4.14175 0.12774,-1.49602 0.82207,-2.45361 0.70753,-0.96871 2.09143,-1.53663 z"
         style="font-size:25px;letter-spacing:5px;fill:#0038a8;fill-opacity:1"
         id="path8930"
         inkscape:connector-curvature="0" />
      <path
         d="m 327.64755,595.30892 q -0.0795,-1.49936 -0.88112,-2.32478 -0.7901,-0.83827 -2.08223,-0.76978 -1.219,0.0646 -1.85705,0.9419 -0.62587,0.87664 -0.54575,2.38819 0.075,1.41403 0.82396,2.1689 0.74902,0.75487 2.02896,0.68703 1.25556,-0.0666 1.92122,-0.88418 0.66567,-0.81763 0.59201,-2.20728 z m 0.30195,4.54361 q -0.57719,0.6418 -1.38995,0.99049 -0.81277,0.34868 -1.84891,0.4036 -2.57207,0.13633 -4.20225,-1.32974 -1.63017,-1.46606 -1.76779,-4.06251 -0.14602,-2.75493 1.44638,-4.53849 1.5924,-1.78356 4.34732,-1.92958 3.19376,-0.16928 4.96853,1.94923 1.78632,2.10566 2.00987,6.32338 0.24036,4.53465 -1.41144,7.04258 -1.6518,2.50794 -4.99184,2.68497 -2.3039,0.12212 -3.78124,-0.99755 -1.478,-1.13185 -1.72193,-3.19703 l 3.52354,-0.17454 q 0.16648,0.83465 0.7248,1.22068 0.55832,0.38603 1.53352,0.33434 1.31651,-0.0698 1.9506,-1.25246 0.63409,-1.18268 0.61079,-3.46737 z"
         style="font-size:25px;letter-spacing:5px;fill:#0038a8;fill-opacity:1"
         id="path8932"
         inkscape:connector-curvature="0" />
      <path
         d="m 345.04618,592.82587 q -0.28515,-1.47414 -1.19281,-2.18133 -0.898,-0.72149 -2.1684,-0.47575 -1.19848,0.23182 -1.70967,1.1886 -0.49921,0.95447 -0.21174,2.44059 0.26892,1.39025 1.11473,2.0348 0.84581,0.64456 2.10423,0.40114 1.23444,-0.23879 1.78119,-1.14028 0.54675,-0.90149 0.28247,-2.26777 z m 0.92464,4.45877 q -0.48333,0.71516 -1.24034,1.17242 -0.75701,0.45727 -1.77573,0.65432 -2.52881,0.48916 -4.34531,-0.73849 -1.8165,-1.22766 -2.3103,-3.78044 -0.52393,-2.70858 0.80774,-4.6944 1.33167,-1.98582 4.04025,-2.50975 3.14004,-0.6074 5.18959,1.24658 2.05922,1.83967 2.86135,5.98643 0.8624,4.45837 -0.42837,7.16985 -1.29077,2.71148 -4.57462,3.34669 -2.26514,0.43815 -3.88258,-0.46744 -1.61975,-0.91758 -2.1457,-2.92951 l 3.46595,-0.658 q 0.27981,0.80377 0.88597,1.10925 0.60615,0.30548 1.56494,0.12002 1.29437,-0.25037 1.75959,-1.50909 0.46521,-1.25873 0.12757,-3.51844 z"
         style="font-size:25px;letter-spacing:5px;fill:#0038a8;fill-opacity:1"
         id="path8934"
         inkscape:connector-curvature="0" />
    </g>
    <path
       inkscape:connector-curvature="0"
       style="fill:#0038a8;fill-opacity:1;stroke:none;stroke-width:1.09569931;stroke-linecap:round;stroke-linejoin:miter;stroke-miterlimit:4;stroke-dasharray:none;stroke-dashoffset:0;stroke-opacity:1"
       d="m 329.84494,458.10301 a 3.9521503,3.9521503 0 0 1 -3.9522,3.95215 3.9521503,3.9521503 0 0 1 -3.9521,-3.95215 3.9521503,3.9521503 0 0 1 3.9521,-3.95215 3.9521503,3.9521503 0 0 1 3.9522,3.95215 z"
       id="path8823" />
    <path
       inkscape:connector-curvature="0"
       style="fill:#0038a8;fill-opacity:1;stroke:none;stroke-width:1.09569931;stroke-linecap:round;stroke-linejoin:miter;stroke-miterlimit:4;stroke-dasharray:none;stroke-dashoffset:0;stroke-opacity:1"
       d="m 505.58786,460.30961 a 3.9521503,3.9521503 0 0 1 -3.9522,3.95215 3.9521503,3.9521503 0 0 1 -3.9521,-3.95215 3.9521503,3.9521503 0 0 1 3.9521,-3.95215 3.9521503,3.9521503 0 0 1 3.9522,3.95215 z"
       id="path8823-2" />
    <ellipse
       style="fill:none;fill-opacity:1;stroke:none;stroke-width:1.32973182;stroke-linecap:square;stroke-linejoin:bevel;stroke-miterlimit:4;stroke-dasharray:none;stroke-dashoffset:0;stroke-opacity:1"
       id="path4205"
       cx="-202.47508"
       cy="-515.72333"
       rx="116.80746"
       ry="116.80743"
       transform="matrix(-0.89027072,0.45543171,-0.45543219,-0.89027048,0,0)" />
    <g
       style="font-style:normal;font-variant:normal;font-weight:bold;font-stretch:normal;font-size:27.5px;line-height:125%;font-family:'Swis721 BT';-inkscape-font-specification:'Swis721 BT, Bold';text-align:start;letter-spacing:0px;word-spacing:0px;writing-mode:lr-tb;text-anchor:start;fill:#0038a8;fill-opacity:1;stroke:none;stroke-width:1px;stroke-linecap:butt;stroke-linejoin:miter;stroke-opacity:1"
       id="text4207">
      <path
         d="m 305.16762,416.06077 -1.23534,-3.02006 q -1.07266,-2.62234 -2.91763,-3.23139 -1.86249,-0.61638 -4.94468,0.64438 -3.06976,1.25567 -4.06406,2.93906 -0.99431,1.6834 -0.0437,4.00747 l 1.42344,3.47989 11.78193,-4.81935 z m 4.81576,2.3389 -18.30673,7.4883 -2.9333,-7.17106 q -1.72337,-4.21316 -0.29291,-7.20656 1.42538,-3.00582 6.04867,-4.89696 2.51049,-1.02691 4.73962,-1.03926 2.22405,-0.0248 3.98709,0.95146 1.31734,0.73782 2.27199,1.97219 0.94223,1.23944 1.96913,3.74994 l 2.51644,6.15195 z"
         style="font-size:27.5px;letter-spacing:3px;word-spacing:6px"
         id="path4215" />
      <path
         d="m 295.91157,389.28715 -0.81028,-3.80881 q 2.38195,0.0973 4.04347,1.58342 1.64559,1.47578 2.18205,3.99747 0.6594,3.09958 -1.03016,5.35351 -1.7027,2.25673 -5.26196,3.01392 -3.50673,0.74601 -5.90933,-0.6099 -2.40261,-1.35592 -3.062,-4.4555 -0.69852,-3.28345 0.91783,-5.49435 1.60321,-2.2081 5.28068,-2.99044 0.40715,-0.0866 0.62009,-0.11819 0.197,-0.0419 0.38647,-0.0548 l 2.02849,9.53516 q 1.66436,-0.43645 2.36159,-1.35356 0.69444,-0.93024 0.39827,-2.32242 -0.20956,-0.98504 -0.72455,-1.53443 -0.52813,-0.54661 -1.42066,-0.74112 z m -3.12321,6.48519 -1.19586,-5.62127 q -1.43355,0.35988 -2.0285,1.2415 -0.61088,0.87128 -0.32589,2.21093 0.26544,1.24772 1.18087,1.80802 0.91264,0.54717 2.36938,0.36082 z"
         style="font-size:27.5px;letter-spacing:3px;word-spacing:6px"
         id="path4217" />
      <path
         d="m 291.0524,368.7955 q -2.20007,0.0957 -3.31759,0.97758 -1.13094,0.88249 -1.06209,2.46547 0.0677,1.55615 1.25695,2.32429 1.1887,0.75473 3.40219,0.65847 2.06592,-0.0899 3.15603,-0.984 1.08952,-0.90757 1.02185,-2.46372 -0.0642,-1.47565 -1.25463,-2.27063 -1.19045,-0.79497 -3.20271,-0.70746 z m 13.49741,9.65461 -20.43113,0.88854 -0.1616,-3.71597 1.97201,-0.0858 q -1.3246,-0.78914 -1.95978,-1.79643 -0.63577,-1.0207 -0.69703,-2.42928 -0.11727,-2.69643 1.9428,-4.46607 2.04665,-1.76906 5.50774,-1.91958 3.50133,-0.15227 5.76091,1.42951 2.24616,1.58237 2.36109,4.22514 0.0607,1.39516 -0.48174,2.52087 -0.54301,1.11229 -1.63837,1.88571 l 7.66,-0.33313 0.1651,3.79646 z"
         style="font-size:27.5px;letter-spacing:3px;word-spacing:6px"
         id="path4219" />
      <path
         d="m 297.6379,350.39508 q 1.04396,0.87078 1.49967,2.13 0.44238,1.2576 0.25128,2.83051 -0.25587,2.1061 -1.59481,3.1067 -1.33733,0.98728 -3.55006,0.71846 -2.05278,-0.2494 -2.99484,-1.5136 -0.94043,-1.27753 -1.0213,-3.95207 -0.0204,-0.61117 -0.0222,-1.59881 -0.0203,-2.50487 -1.12668,-2.63928 -0.87977,-0.10688 -1.31939,0.39429 -0.45296,0.49955 -0.60843,1.77921 -0.14251,1.17301 0.24792,1.85619 0.39042,0.68318 1.25686,0.78844 l 0.21327,0.0259 -0.44048,3.62569 -0.2666,-0.0324 q -2.22606,-0.27045 -3.30129,-1.9972 -1.08856,-1.72837 -0.75172,-4.50096 0.36923,-3.03917 1.61823,-4.52413 1.25062,-1.49829 3.23675,-1.257 l 8.23777,1.00081 q 0.90642,0.11012 1.3823,-0.0214 0.46255,-0.13318 0.7426,-0.54553 l 0.65316,0.0793 -0.49069,4.03891 q -0.39753,0.1546 -0.86369,0.20618 -0.46617,0.0516 -0.98765,0.002 z m -5.33998,-0.58113 q 0.3249,0.99985 0.44088,2.27191 0.11761,1.25872 0.12608,1.30033 0.16856,1.06201 0.55824,1.52868 0.3913,0.45333 1.16442,0.54726 0.79978,0.0972 1.34281,-0.3644 0.5297,-0.46317 0.63658,-1.34294 0.1911,-1.5729 -0.58016,-2.57288 -0.78297,-1.01492 -2.31589,-1.20116 l -1.37296,-0.1668 z"
         style="font-size:27.5px;letter-spacing:3px;word-spacing:6px"
         id="path4221" />
      <path
         d="m 301.25526,340.67346 -14.11458,-3.71756 0.9234,-3.50592 2.4152,0.63612 q -1.25937,-1.12318 -1.67467,-2.28787 -0.42827,-1.16811 -0.0692,-2.53153 0.0581,-0.22074 0.1019,-0.33418 0.0342,-0.12985 0.0677,-0.20434 l 3.83396,0.99592 -0.33174,1.25953 q -0.40698,1.5452 0.19288,2.53634 0.59986,0.99113 2.18402,1.40838 l 7.46632,1.9665 -0.99523,3.77861 z"
         style="font-size:27.5px;letter-spacing:3px;word-spacing:6px"
         id="path4223" />
      <path
         d="m 307.51105,321.63029 q -0.17935,0.50646 -0.42291,1.21839 -0.22622,0.70418 -0.29818,0.8923 -0.80112,2.09444 -1.87613,2.5746 -1.08274,0.46281 -3.39039,-0.41987 l -7.37445,-2.82074 -0.69079,1.80599 -2.55849,-0.97863 0.6908,-1.80598 -3.72485,-1.42477 1.38159,-3.61197 3.72484,1.42476 0.80593,-2.10698 2.55848,0.97862 -0.80592,2.10699 7.55002,2.8879 q 0.53929,0.20627 0.80602,0.0351 0.25419,-0.17592 0.53722,-0.91588 l 0.3406,-0.89045 2.74661,1.05058 z"
         style="font-size:27.5px;letter-spacing:3px;word-spacing:6px"
         id="path4225" />
      <path
         d="m 309.2158,316.58366 -12.58489,-7.3934 1.87726,-3.19542 1.38931,0.8162 q -0.45342,-1.21636 -0.38325,-2.34315 0.0702,-1.12678 0.68913,-2.18035 0.70057,-1.1925 1.64861,-1.7724 0.93647,-0.5867 2.26471,-0.64736 -0.53852,-1.20406 -0.4711,-2.37918 0.0674,-1.17512 0.72039,-2.28657 1.11547,-1.89873 2.87988,-2.35723 1.76441,-0.45849 3.6863,0.67058 l 8.799,5.16925 -1.95208,3.32278 -8.10434,-4.76115 q -0.91463,-0.53733 -1.70494,-0.33196 -0.79509,0.18699 -1.31201,1.06689 -0.57814,0.98409 -0.26988,1.94387 0.29669,0.95297 1.40814,1.60593 l 7.62966,4.48229 -1.93166,3.28804 -8.08119,-4.74755 q -0.92621,-0.54413 -1.7213,-0.35714 -0.78828,0.17541 -1.29841,1.04373 -0.57814,0.9841 -0.26987,1.94388 0.31507,0.94819 1.4381,1.60795 l 7.6065,4.46869 -1.95207,3.32278 z"
         style="font-size:27.5px;letter-spacing:3px;word-spacing:6px"
         id="path4227" />
      <path
         d="m 326.51109,284.09089 2.5905,-2.90738 q 1.33134,1.97756 1.11684,4.19638 -0.21559,2.19986 -1.93068,4.12475 -2.10813,2.36601 -4.92488,2.33814 -2.82676,-0.0368 -5.54366,-2.45758 -2.6768,-2.38504 -3.00586,-5.12415 -0.32907,-2.73911 1.77907,-5.10512 2.23319,-2.50636 4.97191,-2.51204 2.7287,-0.0146 5.53583,2.48656 0.31079,0.27691 0.46226,0.42986 0.15039,0.134 0.27288,0.27911 l -6.48519,7.27848 q 1.33685,1.08324 2.48874,1.10244 1.16082,0.009 2.1077,-1.05352 0.66996,-0.75191 0.80799,-1.49218 0.12801,-0.7492 -0.24345,-1.58375 z m -7.07584,1.32085 3.82322,-4.2909 q -1.13853,-0.9425 -2.20128,-0.90027 -1.06385,0.0233 -1.97499,1.04587 -0.84861,0.95242 -0.75844,2.02192 0.0991,1.05948 1.11149,2.12338 z"
         style="font-size:27.5px;letter-spacing:3px;word-spacing:6px"
         id="path4229" />
      <path
         d="m 336.63666,280.1357 -9.16249,-11.36179 2.97894,-2.40231 1.08736,1.34836 q -0.0283,-1.33992 0.51051,-2.44718 0.53039,-1.11772 1.59654,-1.97749 1.88144,-1.51725 3.60404,-1.28492 1.72463,0.21345 3.30932,2.17851 l 6.246,7.74525 -3.04166,2.45289 -5.53795,-6.86725 q -0.98622,-1.22293 -1.82577,-1.40839 -0.8291,-0.19388 -1.75937,0.55631 -1.0766,0.8682 -1.18114,2.022 -0.11297,1.14335 0.78052,2.25131 l 5.43681,6.74182 -3.04166,2.45288 z"
         style="font-size:27.5px;letter-spacing:3px;word-spacing:6px"
         id="path4231" />
      <path
         d="m 357.78046,265.21302 q -0.4523,0.28998 -1.08134,0.70285 -0.6106,0.41739 -0.78282,0.52183 -1.91742,1.16275 -3.06096,0.88257 -1.13902,-0.29862 -2.42014,-2.41122 l -4.094,-6.75116 -1.65335,1.00261 -1.42037,-2.34224 1.65335,-1.00261 -2.06789,-3.41003 3.30669,-2.00522 2.06789,3.41002 1.9289,-1.16972 1.42037,2.34224 -1.9289,1.16972 4.19148,6.9119 q 0.29939,0.49371 0.61502,0.52216 0.30866,0.017 0.98607,-0.39382 l 0.81519,-0.49435 1.52481,2.51447 z"
         style="font-size:27.5px;letter-spacing:3px;word-spacing:6px"
         id="path4233" />
      <path
         d="m 379.03538,248.08891 q 0.5766,2.09748 1.74435,3.00194 1.18069,0.90091 2.77322,0.46311 1.56664,-0.43067 2.10795,-1.80495 0.55426,-1.37785 -0.0223,-3.47533 -0.57304,-2.08453 -1.73723,-2.97605 -1.16774,-0.90446 -2.74733,-0.47022 -1.59253,0.43779 -2.14679,1.81563 -0.54487,1.36134 0.0282,3.44587 z m -3.81949,1.04999 q -0.96456,-3.50875 0.38702,-6.03882 1.35158,-2.53006 4.67907,-3.44479 3.31454,-0.91118 5.7695,0.57246 2.4679,1.48008 3.43246,4.98883 0.96813,3.5217 -0.3964,6.05532 -1.35159,2.53006 -4.66613,3.44123 -3.32748,0.91474 -5.78244,-0.5689 -2.45496,-1.48364 -3.42308,-5.00533 z"
         style="font-size:27.5px;letter-spacing:3px;word-spacing:6px"
         id="path4235" />
      <path
         d="m 397.70929,251.36863 -1.56018,-11.7536 -2.0632,0.27387 -0.36044,-2.71543 2.0632,-0.27387 -0.17846,-1.34441 q -0.26857,-2.02327 0.64424,-3.10617 0.92435,-1.09798 3.1739,-1.39658 0.41264,-0.0548 0.86875,-0.0882 0.46765,-0.0485 0.99385,-0.0642 l 0.40815,3.07483 -1.01163,0.13429 q -0.86522,0.11484 -1.11471,0.37824 -0.23618,0.26162 -0.15137,0.90055 l 0.13428,1.01163 2.4226,-0.32157 0.36045,2.71544 -2.39598,0.31804 1.56018,11.75359 -3.79363,0.50357 z"
         style="font-size:27.5px;letter-spacing:3px;word-spacing:6px"
         id="path4237" />
      <path
         d="m 430.11015,251.05635 2.29416,-16.08477 -5.80913,-0.82855 0.49865,-3.49612 15.60622,2.22591 -0.49865,3.49611 -5.76925,-0.82286 -2.29416,16.08477 -4.02784,-0.57449 z"
         style="font-size:27.5px;letter-spacing:3px;word-spacing:6px"
         id="path4239" />
      <path
         d="m 442.44687,253.27181 3.91902,-14.05997 3.49236,0.97344 -0.6706,2.40585 q 1.14108,-1.24318 2.31159,-1.64177 1.17412,-0.41153 2.53226,-0.033 0.21989,0.0613 0.33269,0.10667 0.12935,0.0361 0.20335,0.0706 l -1.05064,3.81933 -1.25466,-0.34972 q -1.53923,-0.42903 -2.53884,0.15659 -0.99961,0.58563 -1.43946,2.16366 l -2.07308,7.43743 -3.76399,-1.04916 z"
         style="font-size:27.5px;letter-spacing:3px;word-spacing:6px"
         id="path4241" />
      <path
         d="m 463.88281,258.74944 q -1.12713,0.76006 -2.46345,0.84696 -1.33105,0.0745 -2.78847,-0.54715 -1.95145,-0.83242 -2.53947,-2.3971 -0.57566,-1.55942 0.29891,-3.60968 0.81135,-1.90205 2.28794,-2.45466 1.48893,-0.54733 4.08013,0.12004 0.59268,0.15063 1.54171,0.42407 2.41138,0.67825 2.84867,-0.34688 0.34772,-0.81516 -0.0111,-1.377 -0.3536,-0.57419 -1.5393,-1.07997 -1.08688,-0.46363 -1.85178,-0.27896 -0.76489,0.18466 -1.10735,0.98747 l -0.0843,0.19762 -3.35947,-1.43304 0.10537,-0.24702 q 0.87984,-2.06261 2.83777,-2.61427 1.96319,-0.56401 4.5322,0.53185 2.81602,1.20122 3.89427,2.81444 1.09061,1.61849 0.3056,3.45878 l -3.25595,7.63291 q -0.35826,0.83986 -0.36447,1.33356 -9.5e-4,0.48134 0.31707,0.86517 l -0.25816,0.60519 -3.74235,-1.59636 q -0.0378,-0.42485 0.0426,-0.88694 0.0803,-0.46208 0.27344,-0.94903 z m 2.04566,-4.96674 q -1.05078,0.0335 -2.3048,-0.20943 -1.24166,-0.23769 -1.28398,-0.24114 -1.06693,-0.13396 -1.62367,0.1103 -0.54439,0.24953 -0.84997,0.96588 -0.31611,0.74106 -0.0241,1.39117 0.29729,0.63776 1.11246,0.98548 1.45741,0.62168 2.63265,0.15951 1.19286,-0.46926 1.79874,-1.88962 l 0.54266,-1.27215 z"
         style="font-size:27.5px;letter-spacing:3px;word-spacing:6px"
         id="path4243" />
      <path
         d="m 472.2793,264.82255 7.81551,-12.32718 3.23206,2.04914 -0.92751,1.46294 q 1.25979,-0.45732 2.48146,-0.30283 1.22887,0.14314 2.3856,0.87652 2.0413,1.2942 2.37475,3.00012 0.35199,1.70177 -0.99973,3.83379 l -5.32778,8.40336 -3.3001,-2.09229 4.72382,-7.45074 q 0.84123,-1.32685 0.7471,-2.18148 -0.0828,-0.84743 -1.09209,-1.48734 -1.16808,-0.74057 -2.29429,-0.46885 -1.11902,0.26037 -1.88116,1.46247 l -4.63754,7.31466 -3.3001,-2.09229 z"
         style="font-size:27.5px;letter-spacing:3px;word-spacing:6px"
         id="path4245" />
      <path
         d="m 490.92696,271.61053 2.91184,2.58549 q -0.69982,0.86905 -0.50307,1.77999 0.20567,0.9009 1.33024,1.89944 0.85347,0.75781 1.56499,0.88678 0.73046,0.12784 1.19407,-0.39428 0.65974,-0.74302 -0.75749,-2.66583 -0.57917,-0.78361 -0.90281,-1.26851 -1.64722,-2.43228 -1.82087,-3.91529 -0.1636,-1.47409 0.95975,-2.73923 1.48888,-1.67682 3.55858,-1.58093 2.08866,0.0948 4.15707,1.93136 2.18891,1.94357 2.56917,4.02305 0.3903,2.0884 -1.09849,3.92691 l -2.84156,-2.52308 q 0.58504,-0.71956 0.42179,-1.54689 -0.15321,-0.81841 -1.03681,-1.60297 -0.83339,-0.73999 -1.46795,-0.8545 -0.62452,-0.1056 -1.07029,0.39644 -0.57951,0.65266 1.15358,3.08936 0.40397,0.55622 0.63275,0.88506 1.72417,2.44674 1.87548,3.874 0.16136,1.43618 -1.00657,2.75153 -1.64936,1.85755 -3.82951,1.66359 -2.17011,-0.18506 -4.67028,-2.40501 -2.25919,-2.00598 -2.63391,-4.15237 -0.37473,-2.14639 1.20331,-3.92362 l 0.10699,-0.12049 z"
         style="font-size:27.5px;letter-spacing:3px;word-spacing:6px"
         id="path4247" />
      <path
         d="m 513.67262,291.49591 q 1.71054,-1.38692 2.0832,-2.76087 0.3831,-1.3824 -0.6148,-2.61315 -0.98099,-1.20989 -2.39384,-1.11885 -1.40439,0.10148 -3.12536,1.49685 -1.60623,1.30235 -1.94958,2.66981 -0.3349,1.3779 0.64609,2.58779 0.93025,1.14731 2.36001,1.07712 1.42977,-0.0702 2.99428,-1.3387 z m -16.59255,0.28072 15.88503,-12.87969 2.34253,2.88914 -1.53322,1.24315 q 1.53406,-0.15476 2.64416,0.27626 1.11855,0.44145 2.00652,1.53661 1.69981,2.09645 1.09852,4.74484 -0.59085,2.63993 -3.28182,4.82178 -2.72225,2.20722 -5.47945,2.28192 -2.74678,0.0662 -4.41276,-1.98849 -0.87951,-1.08473 -1.11404,-2.3121 -0.22608,-1.21693 0.19338,-2.49053 l -5.95558,4.82883 -2.39327,-2.95172 z"
         style="font-size:27.5px;letter-spacing:3px;word-spacing:6px"
         id="path4249" />
      <path
         d="m 521.61389,303.02968 q -1.89599,1.06636 -2.49146,2.41806 -0.5889,1.3634 0.22075,2.80295 0.79648,1.41614 2.26084,1.60932 1.47095,0.20489 3.36693,-0.86148 1.88429,-1.05977 2.46806,-2.40489 0.59548,-1.3517 -0.20758,-2.77954 -0.80965,-1.43955 -2.28059,-1.64443 -1.45266,-0.19977 -3.33695,0.86001 z m -1.94183,-3.45257 q 3.17168,-1.78385 5.95337,-1.0837 2.78169,0.70015 4.47339,3.70798 1.68511,2.99613 0.83867,5.73685 -0.83985,2.75242 -4.01154,4.53627 -3.18339,1.79044 -5.97166,1.07858 -2.78168,-0.70015 -4.4668,-3.69628 -1.6917,-3.00783 -0.84526,-5.74855 0.84644,-2.74072 4.02983,-4.53115 z"
         style="font-size:27.5px;letter-spacing:3px;word-spacing:6px"
         id="path4251" />
      <path
         d="m 522.72665,321.29149 13.59989,-5.29951 1.31634,3.37808 -2.32712,0.90681 q 1.67918,0.16711 2.7003,0.86446 1.03363,0.69247 1.54554,2.00617 0.0829,0.21269 0.11425,0.33017 0.0488,0.12511 0.0655,0.20506 l -3.68599,1.45074 -0.4729,-1.21361 q -0.58017,-1.48885 -1.6484,-1.93726 -1.06823,-0.44842 -2.59462,0.14638 l -7.19405,2.80333 -1.41873,-3.64082 z"
         style="font-size:27.5px;letter-spacing:3px;word-spacing:6px"
         id="path4253" />
      <path
         d="m 528.86749,340.37207 q -0.15258,-0.51516 -0.37397,-1.23428 -0.23087,-0.70267 -0.28323,-0.89716 -0.58288,-2.16535 0.005,-3.18566 0.60395,-1.01083 2.98973,-1.65305 l 7.6241,-2.05233 -0.50261,-1.86713 2.6451,-0.71203 0.50261,1.86712 3.85095,-1.03663 1.00522,3.73425 -3.85095,1.03664 0.58638,2.17832 -2.6451,0.71203 -0.58638,-2.17832 -7.80563,2.1012 q -0.55754,0.15008 -0.67275,0.44531 -0.10224,0.29173 0.10369,1.05673 l 0.24781,0.9206 -2.83959,0.76439 z"
         style="font-size:27.5px;letter-spacing:3px;word-spacing:6px"
         id="path4255" />
      <path
         d="m 533.05359,353.54443 q -1.229,-0.58109 -1.98599,-1.68575 -0.74367,-1.10644 -0.95322,-2.677 -0.28057,-2.10294 0.76459,-3.40741 1.04694,-1.29115 3.25637,-1.58593 2.04971,-0.27347 3.27874,0.71402 1.23081,1.0008 1.97994,3.56956 0.17308,0.58651 0.4225,1.54214 0.64795,2.4197 1.75267,2.27231 0.87844,-0.11721 1.17831,-0.71263 0.31318,-0.5972 0.1427,-1.87494 -0.15627,-1.17126 -0.70557,-1.73467 -0.54931,-0.56341 -1.41445,-0.44798 l -0.21295,0.0284 -0.48302,-3.62026 0.2662,-0.0355 q 2.22274,-0.29655 3.69671,1.1053 1.48728,1.40008 1.85665,4.16852 0.40488,3.03463 -0.43173,4.7854 -0.83483,1.76409 -2.81799,2.02868 l -8.22545,1.09744 q -0.90506,0.12075 -1.33274,0.36746 -0.41436,0.24494 -0.58202,0.71435 l -0.65218,0.087 -0.53807,-4.03287 q 0.34604,-0.24937 0.78437,-0.41623 0.43832,-0.16685 0.95563,-0.24942 z m 5.31504,-0.77686 q -0.56531,-0.88639 -0.99665,-2.08869 -0.42957,-1.18899 -0.44821,-1.22714 -0.42955,-0.98579 -0.92382,-1.33979 -0.4925,-0.34069 -1.26446,-0.2377 -0.79859,0.10655 -1.20849,0.68956 -0.39659,0.58124 -0.27938,1.45968 0.20954,1.57056 1.20696,2.34511 1.01251,0.78609 2.54314,0.58188 l 1.37091,-0.18291 z"
         style="font-size:27.5px;letter-spacing:3px;word-spacing:6px"
         id="path4257" />
      <path
         d="m 531.86862,370.34888 q -0.0148,-0.53708 -0.0435,-1.28896 -0.0421,-0.73842 -0.0426,-0.93984 -0.006,-2.24242 0.82483,-3.07702 0.8439,-0.82121 3.3146,-0.82738 l 7.89548,-0.0197 -0.005,-1.93359 2.73925,-0.007 0.005,1.93359 3.98802,-0.01 0.01,3.86718 -3.98802,0.01 0.006,2.25585 -2.73924,0.007 -0.006,-2.25586 -8.08348,0.0202 q -0.57739,0.001 -0.76474,0.25704 -0.17392,0.25556 -0.17194,1.0478 l 0.002,0.95336 -2.94067,0.007 z"
         style="font-size:27.5px;letter-spacing:3px;word-spacing:6px"
         id="path4259" />
      <path
         d="m 547.79632,377.19363 3.54305,0.32956 -0.36188,3.89067 -3.54306,-0.32955 0.36189,-3.89068 z m -16.15099,-1.50227 14.53322,1.3518 -0.36189,3.89067 -14.53322,-1.35179 0.36189,-3.89068 z"
         style="font-size:27.5px;letter-spacing:3px;word-spacing:6px"
         id="path4261" />
      <path
         d="m 536.99704,390.78584 q -2.12217,-0.47783 -3.46962,0.1272 -1.3504,0.61813 -1.71319,2.2294 -0.35689,1.58508 0.60122,2.70922 0.95517,1.13724 3.07733,1.61507 2.10907,0.47487 3.44342,-0.13311 1.34745,-0.60503 1.70729,-2.2032 0.36279,-1.61128 -0.59238,-2.74852 -0.94501,-1.12119 -3.05407,-1.59606 z m 0.8701,-3.86444 q 3.55005,0.79932 5.14693,3.18216 1.59689,2.38284 0.83887,5.74949 -0.75508,3.35355 -3.21913,4.82204 -2.46699,1.48159 -6.01703,0.68227 -3.56315,-0.80227 -5.15708,-3.19821 -1.59689,-2.38284 -0.84182,-5.73639 0.75803,-3.36664 3.22208,-4.83514 2.46404,-1.46849 6.02718,-0.66622 z"
         style="font-size:27.5px;letter-spacing:3px;word-spacing:6px"
         id="path4263" />
      <path
         d="m 525.70429,405.13704 13.51076,5.52277 -1.44801,3.54238 -1.6034,-0.65541 q 0.672,1.15957 0.73505,2.38936 0.0755,1.23487 -0.44277,2.50267 -0.91453,2.23729 -2.53508,2.86592 -1.61321,0.64613 -3.94993,-0.30905 l -9.21019,-3.76484 1.4785,-3.61695 8.16612,3.33805 q 1.45424,0.59445 2.27894,0.35131 0.81962,-0.23071 1.2718,-1.33692 0.52332,-1.28023 0.0575,-2.341 -0.45335,-1.05569 -1.77086,-1.59425 l -8.01697,-3.27709 1.4785,-3.61695 z"
         style="font-size:27.5px;letter-spacing:3px;word-spacing:6px"
         id="path4265" />
    </g>
  </g>
</svg>
